# xmcd CD database file
#
# Track frame offsets:
#	150
#	12407
#	25167
#	40385
#	55327
#	65590
#	77517
#	92547
#	106440
#	119210
#
# Disc length: 1795 seconds
#
# Revision: 2
# Processed by: cddbd v1.5.1PL2 Copyright (c) Steve Scherf et al.
# Submitted via: CDex 1.51
#
DISCID=8307010a
DTITLE=George Jones - George Jones Super Hits Vol 2
DYEAR=1993
DGENRE=Country
TTITLE0=The Door
TTITLE1=Still Doin Time
TTITLE2=Shine on
TTITLE3=I Always Get Lucky With You
TTITLE4=I'm A One Woman Man
TTITLE5=I Turn To You
TTITLE6=Wine Colored Roses
TTITLE7=Loving You Could Never Be Better
TTITLE8=She Thinks I Still Care
TTITLE9=Radio Lover
EXTD=YEAR: 1993
EXTT0=
EXTT1=
EXTT2=
EXTT3=
EXTT4=
EXTT5=
EXTT6=
EXTT7=
EXTT8=
EXTT9=
PLAYORDER=
